<svg xmlns="http://www.w3.org/2000/svg" xmlns:xlink="http://www.w3.org/1999/xlink" viewBox="0 0 117.7 68"><defs><style>.cls-1{fill:url(#linear-gradient);}.cls-2{fill:url(#linear-gradient-2);}.cls-3{fill:url(#linear-gradient-3);}.cls-4{fill:url(#linear-gradient-4);}.cls-5{fill:url(#linear-gradient-5);}.cls-6{fill:url(#linear-gradient-6);}.cls-7{fill:url(#linear-gradient-7);}.cls-8{fill:url(#linear-gradient-8);}.cls-9{fill:url(#linear-gradient-9);}.cls-10{fill:url(#linear-gradient-10);}.cls-11{fill:url(#linear-gradient-11);}.cls-12{fill:url(#linear-gradient-12);}.cls-13{fill:url(#linear-gradient-13);}.cls-14{fill:url(#linear-gradient-14);}.cls-15{fill:url(#linear-gradient-15);}.cls-16{fill:url(#linear-gradient-16);}.cls-17{fill:url(#linear-gradient-17);}.cls-18{fill:url(#linear-gradient-18);}.cls-19{fill:url(#linear-gradient-19);}.cls-20{fill:url(#linear-gradient-20);}.cls-21{fill:url(#linear-gradient-21);}.cls-22{fill:#fff;}.cls-23,.cls-24{fill:none;stroke-linejoin:round;}.cls-23{stroke:#fff;}.cls-24{stroke:#000;}.cls-25{fill:#110c0d;}.cls-26{fill:#010101;}.cls-27{fill:#f0efef;}</style><linearGradient id="linear-gradient" x1="57.38" y1="14.35" x2="85.94" y2="14.35" gradientUnits="userSpaceOnUse"><stop offset="0"/><stop offset="0.36" stop-color="#fff"/></linearGradient><linearGradient id="linear-gradient-2" x1="63.31" y1="16.17" x2="87.11" y2="16.17" xlink:href="#linear-gradient"/><linearGradient id="linear-gradient-3" x1="61.15" y1="17.37" x2="87.85" y2="17.37" xlink:href="#linear-gradient"/><linearGradient id="linear-gradient-4" x1="59.06" y1="20.36" x2="89.38" y2="20.36" xlink:href="#linear-gradient"/><linearGradient id="linear-gradient-5" x1="62.73" y1="21.9" x2="90" y2="21.9" xlink:href="#linear-gradient"/><linearGradient id="linear-gradient-6" x1="62.27" y1="23.37" x2="90.52" y2="23.37" xlink:href="#linear-gradient"/><linearGradient id="linear-gradient-7" x1="60.01" y1="24.99" x2="91.04" y2="24.99" xlink:href="#linear-gradient"/><linearGradient id="linear-gradient-8" x1="70.57" y1="26.33" x2="91.35" y2="26.33" xlink:href="#linear-gradient"/><linearGradient id="linear-gradient-9" x1="67.94" y1="29" x2="91.89" y2="29" xlink:href="#linear-gradient"/><linearGradient id="linear-gradient-10" x1="68.21" y1="31.94" x2="92.23" y2="31.94" xlink:href="#linear-gradient"/><linearGradient id="linear-gradient-11" x1="64.35" y1="33.41" x2="92.31" y2="33.41" xlink:href="#linear-gradient"/><linearGradient id="linear-gradient-12" x1="62.73" y1="34.96" x2="92.33" y2="34.96" xlink:href="#linear-gradient"/><linearGradient id="linear-gradient-13" x1="70.88" y1="38.06" x2="92.23" y2="38.06" xlink:href="#linear-gradient"/><linearGradient id="linear-gradient-14" x1="69.19" y1="39.61" x2="92.06" y2="39.61" xlink:href="#linear-gradient"/><linearGradient id="linear-gradient-15" x1="68.63" y1="41.15" x2="91.86" y2="41.15" xlink:href="#linear-gradient"/><linearGradient id="linear-gradient-16" x1="69.98" y1="42.71" x2="91.56" y2="42.71" xlink:href="#linear-gradient"/><linearGradient id="linear-gradient-17" x1="75.05" y1="44.27" x2="91.14" y2="44.27" xlink:href="#linear-gradient"/><linearGradient id="linear-gradient-18" x1="73.2" y1="46.15" x2="90.61" y2="46.15" xlink:href="#linear-gradient"/><linearGradient id="linear-gradient-19" x1="73.2" y1="47.41" x2="91.01" y2="47.41" xlink:href="#linear-gradient"/><linearGradient id="linear-gradient-20" x1="76.06" y1="48.66" x2="94.74" y2="48.66" xlink:href="#linear-gradient"/><linearGradient id="linear-gradient-21" x1="99.24" y1="48.71" x2="100.93" y2="48.71" xlink:href="#linear-gradient"/></defs><g id="Layer_2" data-name="Layer 2"><g id="bw"><path d="M92.3,35v.4a16.9,16.9,0,0,1-.1,2.3v.7a2.5,2.5,0,0,0-.1.8c0,.2-.1.3-.1.4V40a2.2,2.2,0,0,0-.1.8c-.1.1-.1.2-.1.4s-.1.2-.1.3-.1.6-.1.8a.8.8,0,0,0-.1.4v.4l-.3.9v.3c0,.1-.1.1-.1.2s-.3.9-.4,1.4-.1.1-.1.2-.1.2-.1.3-.1.5-.2.7h0a.4.4,0,0,0-.1.3l-.2.3a1.1,1.1,0,0,1-.3.7v.2a.4.4,0,0,0-.1.3l-.2.4A34.1,34.1,0,0,1,77.5,63.5l-1.4,1h0a35.9,35.9,0,0,1-3.8,2.1H72l-.6.3h-.1l-.5.3-.6.2H44.6L43.3,67l-.3-.2h-.3l-2.6-1.3-1-.7a.5.5,0,0,1-.4-.2h0l-2-1.4A34.1,34.1,0,0,1,24.6,47a11.8,11.8,0,0,1-.7-2l-.6-2.1a34.2,34.2,0,0,1-.9-7.9A35,35,0,0,1,85.3,13.9l.3.4.3.5a3.6,3.6,0,0,1,.7,1l.3.4c0,.1.1.2.2.4l.2.3.3.5a.8.8,0,0,1,.2.4,21.2,21.2,0,0,1,1.1,2.1.8.8,0,0,1,.2.4l.3.5a1.4,1.4,0,0,1,.2.6l.2.5c.1.1.1.3.2.4s.1.4.2.6l.2.5c0,.1.1.3.1.4a2.5,2.5,0,0,1,.2.7l.2.5a4.3,4.3,0,0,1,.1.5c.1.1.1.3.2.5a.4.4,0,0,0,.1.3v.4c.2.6.3,1.2.5,1.9V29c0,.1.1.3.1.4l.3,2.1v.8c0,.2.1.5.1.6V35Z"/><path class="cls-1" d="M85.9,14.8l-28.5-.5,27.9-.4.3.4Z"/><path class="cls-2" d="M87.1,16.6l-23.8-.4,23.3-.4.3.4C86.9,16.3,87,16.4,87.1,16.6Z"/><path class="cls-3" d="M87.8,17.8l-26.6-.4,26.1-.5.3.5A.8.8,0,0,1,87.8,17.8Z"/><path class="cls-4" d="M89.4,20.8l-30.3-.4,29.8-.5a.8.8,0,0,1,.2.4Z"/><path class="cls-5" d="M90,22.3l-27.3-.4,26.9-.5.2.5C89.9,22,89.9,22.2,90,22.3Z"/><path class="cls-6" d="M90.5,23.8l-28.2-.4,27.9-.5.2.5C90.4,23.5,90.5,23.7,90.5,23.8Z"/><path class="cls-7" d="M91,25.5,60,25l30.7-.5.2.5A4.3,4.3,0,0,1,91,25.5Z"/><path class="cls-8" d="M91.3,26.7l-20.7-.4L91.2,26a.4.4,0,0,0,.1.3Z"/><path class="cls-9" d="M91.9,29.4l-24-.4,23.9-.4V29C91.8,29.1,91.9,29.3,91.9,29.4Z"/><path class="cls-10" d="M92.2,32.3l-24-.4,24-.4v.8Z"/><path class="cls-11" d="M92.3,33.9l-28-.5,28-.5v1Z"/><path class="cls-12" d="M92.3,35v.4l-28-.4h0l28-.4Z"/><path class="cls-13" d="M92.2,37.7v.7l-21.3-.3Z"/><path class="cls-14" d="M92.1,39.2c0,.2-.1.3-.1.4V40l-21.5-.4h0Z"/><path class="cls-15" d="M91.9,40.8c-.1.1-.1.2-.1.4s-.1.2-.1.3l-20-.3h-.1Z"/><path class="cls-16" d="M91.6,42.3a.8.8,0,0,0-.1.4v.4H72.7Z"/><path class="cls-17" d="M91.1,44v.3c0,.1-.1.1-.1.2H75l7.8-.2h8.3Z"/><path class="cls-18" d="M90.6,45.9c0,.1-.1.1-.1.2s-.1.2-.1.3h.2Z"/><polygon class="cls-19" points="91 47.7 89.9 47.7 87 47.6 83.1 47.6 82.8 47.6 82.4 47.5 76.6 47.5 76.1 47.5 74 47.4 73.2 47.4 73.9 47.4 76.1 47.4 76.7 47.3 82.7 47.2 82.8 47.2 84.4 47.2 86.5 47.2 90.2 47.1 90.3 47.1 91 47.7"/><polygon class="cls-20" points="94.3 48.4 94.7 49 89.5 48.9 88.6 48.9 82.9 48.8 81.6 48.7 81.2 48.7 78.4 48.7 77.3 48.7 76.1 48.6 77.3 48.6 78.1 48.6 81.4 48.6 81.6 48.6 84.2 48.5 88.1 48.5 89.6 48.4 93.5 48.4 94.3 48.4"/><polygon class="cls-21" points="100.9 49.1 99.2 49 100.1 48.4 100.9 49.1"/><polygon class="cls-22" points="116.7 67.4 0.5 67.5 7.7 52.7 10.6 55.4 13 52.2 19.1 43.1 22 45.2 23.3 42.9 24.1 41.6 26.5 43.3 37.4 35.3 43.2 43.1 56.7 25.9 64.3 34.9 64.3 35 67.3 38.5 69.7 38.5 70.5 39.6 70.5 39.6 71.6 41.1 71.7 41.2 72.7 42.7 72.8 42.8 75.2 46.1 75.2 46.2 76.1 47.4 76.1 47.5 76.4 47.9 76.6 47.5 76.7 47.3 77.1 46.2 77.2 46.1 77.4 45.5 80.1 46 80.8 46.2 81 46 82.8 44.1 84 42.9 84.4 42.6 84.9 43 86.3 44.1 86.8 44.5 88.7 45.9 89.4 46.4 90.2 47.1 90.3 47.1 91 47.7 91.9 48.4 94.3 48.4 94.7 49 96.5 51.3 99.2 49 100.1 48.4 100.9 49.1 105.6 52.9 108.5 54.1 116.7 67.4"/><polygon class="cls-22" points="117.2 67.5 0.5 67.5 2.3 64.5 7.7 55.7 10.6 58.4 13 55.2 19.1 46.1 22 48.2 23.9 45 24.1 44.6 26.5 46.3 37.4 38.3 43.2 46.1 56.7 28.9 67.3 41.5 69.7 41.5 70.6 42.7 73.9 47.4 76.4 50.9 77.3 48.7 77.4 48.5 78.3 48.7 80.8 49.2 81.3 48.7 82.6 47.4 83.8 46.2 84.4 45.6 85.1 46.2 86.8 47.4 88.4 48.7 89.3 49.3 91.9 51.4 94.3 51.4 96.5 54.3 100.1 51.4 105.6 55.9 108.5 57.2 114.7 64.5 117.2 67.5"/><polygon class="cls-23" points="116.7 67.4 0.5 67.5 7.7 52.7 10.6 55.4 13 52.2 19.1 43.1 22 45.2 23.3 42.9 24.1 41.6 26.5 43.3 37.4 35.3 43.2 43.1 56.7 25.9 64.3 34.9 64.3 35 67.3 38.5 69.7 38.5 70.5 39.6 70.5 39.6 71.6 41.1 71.7 41.2 72.7 42.7 72.8 42.8 75.2 46.1 75.2 46.2 76.1 47.4 76.1 47.5 76.4 47.9 76.6 47.5 76.7 47.3 77.1 46.2 77.2 46.1 77.4 45.5 80.1 46 80.8 46.2 81 46 82.8 44.1 84 42.9 84.4 42.6 84.9 43 86.3 44.1 86.8 44.5 88.7 45.9 89.4 46.4 90.2 47.1 90.3 47.1 91 47.7 91.9 48.4 94.3 48.4 94.7 49 96.5 51.3 99.2 49 100.1 48.4 100.9 49.1 105.6 52.9 108.5 54.1 116.7 67.4"/><polygon class="cls-24" points="117.2 67.5 0.5 67.5 2.3 64.5 7.7 55.7 10.6 58.4 13 55.2 19.1 46.1 22 48.2 23.9 45 24.1 44.6 26.5 46.3 37.4 38.3 43.2 46.1 56.7 28.9 67.3 41.5 69.7 41.5 70.6 42.7 73.9 47.4 76.4 50.9 77.3 48.7 77.4 48.5 78.3 48.7 80.8 49.2 81.3 48.7 82.6 47.4 83.8 46.2 84.4 45.6 85.1 46.2 86.8 47.4 88.4 48.7 89.3 49.3 91.9 51.4 94.3 51.4 96.5 54.3 100.1 51.4 105.6 55.9 108.5 57.2 114.7 64.5 117.2 67.5"/><polygon class="cls-25" points="2.6 63.7 7.4 64.2 2.6 64.7 2.6 63.7"/><polygon class="cls-25" points="3.5 62 7.1 62.5 3.5 63 3.5 62"/><polygon class="cls-25" points="4.4 60.3 6.7 60.8 4.4 61.3 4.4 60.3"/><polygon class="cls-25" points="1.6 65.2 7.7 65.7 1.6 66.2 1.6 65.2"/><polygon class="cls-25" points="5.2 58.9 6.5 59.4 5.2 59.9 5.2 58.9"/><polygon class="cls-25" points="12.3 55.9 17.1 56.4 12.3 56.9 12.3 55.9"/><polygon class="cls-25" points="13.7 53.6 17 54.1 13.7 54.6 13.7 53.6"/><polygon class="cls-25" points="15.4 51.6 17.2 52.1 15.4 52.6 15.4 51.6"/><polygon class="cls-25" points="16.3 49.8 18.7 50.3 16.3 50.8 16.3 49.8"/><polygon class="cls-25" points="22.6 46.5 24.6 47 22.6 47.5 22.6 46.5"/><polygon class="cls-25" points="27.8 44.9 32.6 45.4 27.8 45.9 27.8 44.9"/><polygon class="cls-25" points="29.8 43.3 34.6 43.8 29.8 44.3 29.8 43.3"/><polygon class="cls-25" points="32.2 41.7 35.8 42.2 32.2 42.7 32.2 41.7"/><polygon class="cls-25" points="34.4 40 36.9 40.5 34.4 41 34.4 40"/><polygon class="cls-25" points="44.2 44.3 49.1 44.8 44.2 45.3 44.2 44.3"/><polygon class="cls-25" points="45.6 42.3 50.5 42.8 45.6 43.3 45.6 42.3"/><polygon class="cls-25" points="47.3 40.3 52.1 40.8 47.3 41.3 47.3 40.3"/><polygon class="cls-25" points="49.1 38.1 53.5 38.6 49.1 39.1 49.1 38.1"/><polygon class="cls-25" points="50.7 35.9 54.8 36.4 50.7 36.9 50.7 35.9"/><polygon class="cls-25" points="52.3 33.7 56.1 34.2 52.3 34.7 52.3 33.7"/><polygon class="cls-25" points="54.2 31.4 56.8 31.9 54.2 32.4 54.2 31.4"/><polygon class="cls-25" points="77 49.5 78.5 50 77 50.5 77 49.5"/><polygon class="cls-25" points="81.6 48 84.2 48.5 81.6 49 81.6 48"/><polygon class="cls-25" points="82.8 46.7 84.6 47.2 82.8 47.7 82.8 46.7"/><polygon class="cls-25" points="96.4 53.6 99.8 54.1 96.4 54.6 96.4 53.6"/><polygon class="cls-25" points="98.5 52.3 100.1 52.8 98.5 53.3 98.5 52.3"/><path class="cls-26" d="M23.1,67H21.5a4.3,4.3,0,0,0,.1.5H20.3c.1-.1.1-.3.2-.5H18.7v-.2l1.1-1.6h-.7v-.2l.2-.3.8-1.3h-.5c-.1,0-.1,0-.1-.1v-.2l1.4-2.2c0-.1.1-.1.2,0l1.4,2.2h0c0,.1,0,.2-.1.2h-.6l.9,1.3v.3a.1.1,0,0,1,.1.1v.2h-.6l1,1.6c.1.1.1.1.1.2Z"/><path class="cls-26" d="M26.6,67H25.5a4.3,4.3,0,0,0,.1.5h-1a.7.7,0,0,0,.1-.5H23.5l.8-1.1h-.4a.1.1,0,0,1-.1-.1h0l.6-1v-.2h-.4c-.1-.1,0-.1,0-.1l.9-1.6h.2l.9,1.5h-.4v.2l.6,1h.1v.2H26l.7,1.1h-.1Z"/><path class="cls-26" d="M30.5,67H29.1a1.1,1.1,0,0,1,.1.5H28.1a.7.7,0,0,0,.1-.5H26.8l.8-1.4h-.4a.1.1,0,0,1-.1-.1h0l.4-.7.5-.7h-.6v-.2l1.2-1.8h.2l1.1,1.8h-.5l.4.7.4.7h-.5l.9,1.4h-.1Z"/><path class="cls-26" d="M35.4,67H33.8a4.3,4.3,0,0,0,.1.5H32.6a.7.7,0,0,0,.1-.5H31v-.2l1-1.6h-.6v-.2l.2-.3.8-1.3h-.5c-.1,0-.1,0-.1-.1v-.2l1.4-2.2c0-.1.1-.1.2,0l1.4,2.2h0c0,.1,0,.2-.1.2h-.6l.9,1.3v.3a.1.1,0,0,1,.1.1v.2h-.6l1,1.6c.1.1.1.1,0,.2Z"/><path class="cls-26" d="M39.6,67H38.2a.7.7,0,0,0,.1.5H37.1a.7.7,0,0,0,.1-.5H35.7a.1.1,0,0,1,.1-.1l.8-1.4h-.4a.1.1,0,0,1-.1-.1c-.1-.1,0-.1,0-.2l.4-.6.5-.8h-.5a.1.1,0,0,1-.1-.1h0l1.2-1.9c.1-.1.2-.1.2,0L39,63.5h0c0,.1,0,.1-.1.1h-.5l.5.8.4.6h0c0,.1,0,.2-.1.2h-.4l.8,1.4a.1.1,0,0,1,.1.1Z"/><path class="cls-26" d="M42.8,66.8H41.6c.1.2.1.4.2.5h-1a.7.7,0,0,0,.1-.5H39.8l.7-1.1H40v-.2l.7-1h-.4l.9-1.5h.2l.9,1.5h0c0,.1,0,.1-.1.1h-.3l.6,1h.1a.1.1,0,0,1-.1.1h-.4Z"/><path class="cls-26" d="M47.4,67H45.8a.7.7,0,0,0,.1.5H44.6a4.3,4.3,0,0,0,.1-.5H43v-.2l1-1.6h-.7v-.5l.9-1.3h-.6a.1.1,0,0,0-.1-.1v-.2l1.4-2.2c.1-.1.2-.1.2,0l1.4,2.2a.1.1,0,0,1,.1.1.2.2,0,0,1-.2.2h-.5l.8,1.3.2.3h0c0,.1,0,.2-.1.2h-.5l1,1.6v.2Z"/><path class="cls-26" d="M51.2,67H49.9a4.3,4.3,0,0,0,.1.5H48.9A.7.7,0,0,0,49,67H47.7l.8-1.3H48l.5-.8.3-.5h-.4c-.1,0-.1,0-.1-.1h0l1.1-1.7c0-.1.1-.1.1,0l1.1,1.7a.1.1,0,0,1,.1.1h-.6l.4.5.4.8c.1,0,.1,0,.1.1h-.6l.8,1.3c.1,0,.1.1,0,.1Z"/><path class="cls-26" d="M53.8,66.8l-.6-.9h.3a.1.1,0,0,0,.1-.1h-.1l-.5-.9h.3a.1.1,0,0,0,.1-.1h-.1l-.7-1.2h-.1l-.8,1.2H52l-.5.9h.3l-.5.9h.9a.8.8,0,0,1-.2.5h0a.1.1,0,0,0,.1.1h.8c.1,0,.1,0,.1-.1h0a.8.8,0,0,1-.2-.5h1Z"/><path class="cls-26" d="M55.6,66.9l-.4-.7h.3l-.4-.6h.2l-.5-.8h-.1l-.5.8h.2l-.3.7h.2l-.4.7h.7c-.1.1-.1.3-.2.3h.7c-.1,0-.1-.2-.1-.3h.6Z"/><path class="cls-26" d="M57.3,66.9l-.4-.7h.3l-.4-.6H57l-.5-.8h-.1l-.5.8h.3l-.4.7H56l-.4.7h.7v.3h.6c-.1,0-.1-.2-.1-.3h.6Z"/><path class="cls-26" d="M59.4,66.9l-.5-.8h.3l-.5-.7H59l-.6-.9h-.1l-.6.9H58l-.4.7c-.1.1-.1.1,0,.1h.2l-.4.8h.7c0,.2,0,.3-.1.4h.7c0-.1-.1-.2-.1-.4h.8Z"/><path class="cls-26" d="M62.9,66.8l-.8-1.3h.6a.1.1,0,0,0-.1-.1L61.8,64h.6a.1.1,0,0,0-.1-.1l-1.1-1.7c0-.1-.1-.1-.1,0L60,63.8h0c0,.1,0,.1.1.1h.4l-.8,1.3h.5l-.8,1.3h1.3a1.9,1.9,0,0,1-.2.8h1.3c.1-.1.1-.1,0-.1a1.9,1.9,0,0,1-.2-.8h1.3C63,66.9,63,66.8,62.9,66.8Z"/><path class="cls-26" d="M66.1,66.8l-.7-1.1h.4a.1.1,0,0,0,.1-.1h0l-.7-1.1h.3c.1,0,.1,0,.1-.1h0l-.9-1.5h-.1l-1,1.5h.5l-.7,1.1c-.1.1-.1.1,0,.1h.4l-.7,1.1h1.2l-.2.6h1.1A.8.8,0,0,1,65,67h1.1Z"/><path class="cls-26" d="M69.9,66.8l-.8-1.3h.5c0-.1,0-.1-.1-.1L68.8,64h.5c0-.1,0-.1-.1-.1l-1-1.7c-.1-.1-.2-.1-.2,0l-1.1,1.7h0a.1.1,0,0,0,.1.1h.4l-.8,1.3h.5l-.8,1.3h1.4l-.3.8h1.4c-.2-.2-.2-.5-.3-.8h1.4Z"/><path class="cls-26" d="M72.1,66.9l-.5-.8h.3l-.5-.7h.3l-.6-.9H71l-.6.9h.3l-.4.7h.2l-.4.8h.7c0,.2,0,.3-.1.4h.7c0-.1-.1-.2-.1-.4h.8Z"/><path class="cls-26" d="M78.2,66.9H76a1.9,1.9,0,0,0,.2.8H74.4c.1-.2.1-.5.2-.8H72.2c0-.1,0-.2.1-.2l1.3-2.2h-.7a.1.1,0,0,1-.1-.1.2.2,0,0,1,0-.3l.2-.3,1.1-1.9h-.8c-.1-.1-.1-.1,0-.2l1.9-3c0-.1.2-.1.2,0l1.9,3h0c0,.1,0,.2-.1.2h-.8l1.2,1.9.2.3v.2c0,.1,0,.2-.1.2h-.8l1.4,2.2a.1.1,0,0,1,0,.2A.1.1,0,0,1,78.2,66.9Z"/><path class="cls-26" d="M81.2,66.8l-.7-1.1h.4c.1,0,.1,0,.1-.1h0l-.7-1.1h.4l-.9-1.5h-.1l-1,1.5h.5l-.7,1.1h.4l-.7,1.1h1.2c-.1.3-.1.5-.2.6h1.1a.8.8,0,0,1-.2-.6h1.1Z"/><path class="cls-26" d="M82.2,66.9l-.4-.8H82l-.4-.7h.3l-.6-.9h-.1l-.6.9h.2l-.4.7h.3l-.5.8H81a.5.5,0,0,1-.2.4h.8l-.2-.4h.8Z"/><path class="cls-26" d="M84.3,66.9l-.4-.8h.3l-.5-.7H84l-.6-.9h-.1l-.6.9H83l-.5.7h.3l-.4.8h.7c0,.2-.1.3-.1.4h.7c0-.1-.1-.2-.1-.4h.7Z"/><path class="cls-26" d="M87.9,66.8l-.8-1.3h.5L86.8,64h.4a.1.1,0,0,0,.1-.1h0l-1.1-1.7c0-.1-.1-.1-.1,0L85,63.8a.1.1,0,0,0-.1.1h.6l-.8,1.3a.1.1,0,0,0-.1.1h.6l-.8,1.3c-.1,0-.1.1,0,.1h1.3a1.9,1.9,0,0,1-.2.8c-.1,0-.1,0-.1.1h1.4a1.9,1.9,0,0,1-.2-.8h1.3Z"/><path class="cls-26" d="M92.5,66.9H90.9a1.3,1.3,0,0,0,.1.6H89.7c0-.2.1-.4.1-.6H88.2c-.1,0-.1,0-.1-.1h0l1-1.7h-.6c-.1,0-.1-.1,0-.1v-.3l.9-1.4h-.7l1.4-2.2c.1-.1.2-.1.2,0l1.4,2.2a.1.1,0,0,1,.1.1c0,.1-.1.1-.2.1h-.5l.9,1.4v.4h-.6l1,1.7h0A.1.1,0,0,1,92.5,66.9Z"/><path class="cls-26" d="M97.6,66.9H95.8c.1.2.1.4.2.6H94.5c.1-.2.1-.4.2-.6H92.8v-.2l1.1-1.8h-.7l.2-.3.9-1.5h-.7v-.2l1.5-2.4a.2.2,0,0,1,.3,0l1.4,2.4a.1.1,0,0,1,.1.1.3.3,0,0,1-.1.2h-.6l.9,1.5v.2c.1.1.1.1.1.2h-.7l1.1,1.8v.2Z"/><path d="M57.5,44.9H55.9a1.1,1.1,0,0,0-1.1,1.2v.7a1,1,0,0,0,1,1.1h1.8a1.1,1.1,0,0,0,1.1-1.1v-.7A1.2,1.2,0,0,0,57.5,44.9Zm.5,1.9a.5.5,0,0,1-.5.4H55.9a.4.4,0,0,1-.4-.4v-.7a.5.5,0,0,1,.4-.5h1.6a.5.5,0,0,1,.5.5Z"/><path d="M64.7,48.7h-16a1.1,1.1,0,0,1,0-2.2h16a1.1,1.1,0,0,1,0,2.2Z"/><path d="M56.7,52.8a.9.9,0,0,1-.9-.9V48.1a.9.9,0,0,1,1.8,0v3.8A.9.9,0,0,1,56.7,52.8Z"/><rect class="cls-27" x="55.5" y="51.4" width="2.5" height="15.72" rx="1.3"/><path d="M57.6,51.3a1.2,1.2,0,0,0-.9-.3,1.6,1.6,0,0,0-.9.3,1.7,1.7,0,0,0-.7,1.4V65.9a2.1,2.1,0,0,0,.4,1.1l.6.4h.6a1.7,1.7,0,0,0,1.2-.5,1.5,1.5,0,0,0,.4-1.1V52.7A1.5,1.5,0,0,0,57.6,51.3Zm0,14.8a1,1,0,0,1-.4.5l-.5.2a.8.8,0,0,1-.7-.5h-.1V66h-.1V52.7c0-.2.1-.3.1-.4a.9.9,0,0,1,.8-.5.8.8,0,0,1,.8.5c.1.1.1.2.1.4V65.9h0Z"/><path d="M61.2,61.2H58c-.2,0-.4-.1-.4-.3a.4.4,0,0,1,.4-.4h3.2a.4.4,0,0,1,.4.4C61.6,61.1,61.4,61.2,61.2,61.2Z"/><path d="M55.5,58.5H52.2a.3.3,0,0,1-.3-.3c0-.2.1-.4.3-.4h3.3c.2,0,.3.2.3.4A.3.3,0,0,1,55.5,58.5Z"/><path d="M63.3,49.5a.5.5,0,0,1-.5-.4V46a.5.5,0,0,1,.5-.4.4.4,0,0,1,.4.4v3.1A.4.4,0,0,1,63.3,49.5Z"/><path d="M50.4,49.5a.5.5,0,0,1-.5-.4V46a.5.5,0,0,1,.5-.4.4.4,0,0,1,.4.4v3.1A.4.4,0,0,1,50.4,49.5Z"/><rect x="60.3" y="59.6" width="2.5" height="2.55"/><rect x="50.4" y="56.7" width="2.5" height="2.55"/></g></g></svg>