<svg xmlns="http://www.w3.org/2000/svg" xmlns:xlink="http://www.w3.org/1999/xlink" viewBox="0 0 117.7 68.4"><defs><style>.cls-1{fill:#fecb76;}.cls-2{fill:url(#linear-gradient);}.cls-3{fill:url(#linear-gradient-2);}.cls-4{fill:url(#linear-gradient-3);}.cls-5{fill:url(#linear-gradient-4);}.cls-6{fill:url(#linear-gradient-5);}.cls-7{fill:url(#linear-gradient-6);}.cls-8{fill:url(#linear-gradient-7);}.cls-9{fill:url(#linear-gradient-8);}.cls-10{fill:url(#linear-gradient-9);}.cls-11{fill:url(#linear-gradient-10);}.cls-12{fill:url(#linear-gradient-11);}.cls-13{fill:url(#linear-gradient-12);}.cls-14{fill:url(#linear-gradient-13);}.cls-15{fill:url(#linear-gradient-14);}.cls-16{fill:url(#linear-gradient-15);}.cls-17{fill:url(#linear-gradient-16);}.cls-18{fill:url(#linear-gradient-17);}.cls-19{fill:url(#linear-gradient-18);}.cls-20{fill:url(#linear-gradient-19);}.cls-21{fill:url(#linear-gradient-20);}.cls-22{fill:url(#linear-gradient-21);}.cls-23{fill:#fff;}.cls-24{fill:#aaa;}.cls-25,.cls-29{fill:none;stroke-linejoin:round;}.cls-25{stroke:#fff;}.cls-26{fill:#110c0d;}.cls-27{fill:#4e8758;}.cls-28{fill:#010101;}.cls-29{stroke:#000;}</style><linearGradient id="linear-gradient" x1="57.38" y1="14.69" x2="86.14" y2="14.69" gradientUnits="userSpaceOnUse"><stop offset="0" stop-color="#fecb76"/><stop offset="0.36" stop-color="#fff"/></linearGradient><linearGradient id="linear-gradient-2" x1="63.31" y1="16.52" x2="87.26" y2="16.52" xlink:href="#linear-gradient"/><linearGradient id="linear-gradient-3" x1="61.15" y1="17.72" x2="87.99" y2="17.72" xlink:href="#linear-gradient"/><linearGradient id="linear-gradient-4" x1="59.06" y1="20.71" x2="89.48" y2="20.71" xlink:href="#linear-gradient"/><linearGradient id="linear-gradient-5" x1="62.73" y1="22.24" x2="90.07" y2="22.24" xlink:href="#linear-gradient"/><linearGradient id="linear-gradient-6" x1="62.27" y1="23.72" x2="90.6" y2="23.72" xlink:href="#linear-gradient"/><linearGradient id="linear-gradient-7" x1="60.01" y1="25.34" x2="91.08" y2="25.34" xlink:href="#linear-gradient"/><linearGradient id="linear-gradient-8" x1="70.57" y1="26.68" x2="91.38" y2="26.68" xlink:href="#linear-gradient"/><linearGradient id="linear-gradient-9" x1="67.94" y1="29.35" x2="91.88" y2="29.35" xlink:href="#linear-gradient"/><linearGradient id="linear-gradient-10" x1="68.21" y1="32.28" x2="92.2" y2="32.28" xlink:href="#linear-gradient"/><linearGradient id="linear-gradient-11" x1="64.35" y1="33.75" x2="92.27" y2="33.75" xlink:href="#linear-gradient"/><linearGradient id="linear-gradient-12" x1="62.73" y1="35.3" x2="92.29" y2="35.3" xlink:href="#linear-gradient"/><linearGradient id="linear-gradient-13" x1="70.88" y1="38.4" x2="92.14" y2="38.4" xlink:href="#linear-gradient"/><linearGradient id="linear-gradient-14" x1="69.19" y1="39.95" x2="91.98" y2="39.95" xlink:href="#linear-gradient"/><linearGradient id="linear-gradient-15" x1="68.63" y1="41.5" x2="91.75" y2="41.5" xlink:href="#linear-gradient"/><linearGradient id="linear-gradient-16" x1="69.98" y1="43.05" x2="91.43" y2="43.05" xlink:href="#linear-gradient"/><linearGradient id="linear-gradient-17" x1="75.05" y1="44.61" x2="91" y2="44.61" xlink:href="#linear-gradient"/><linearGradient id="linear-gradient-18" x1="73.2" y1="46.49" x2="90.44" y2="46.49" xlink:href="#linear-gradient"/><linearGradient id="linear-gradient-19" x1="73.2" y1="47.75" x2="91" y2="47.75" gradientUnits="userSpaceOnUse"><stop offset="0"/><stop offset="0.36" stop-color="#fff"/></linearGradient><linearGradient id="linear-gradient-20" x1="76.06" y1="49.01" x2="94.74" y2="49.01" xlink:href="#linear-gradient-19"/><linearGradient id="linear-gradient-21" x1="99.23" y1="49.06" x2="100.93" y2="49.06" xlink:href="#linear-gradient-19"/></defs><g id="Layer_2" data-name="Layer 2"><g id="bw"><path class="cls-1" d="M92.3,34.8v1a17.9,17.9,0,0,1-.2,2.3h0v.7c0,.2-.1.5-.1.8h0a2,2,0,0,0-.1.7c-.1.3-.1.6-.2.8h0c0,.2-.1.4-.1.7s-.1.5-.2.8h0c0,.2-.1.5-.1.7l-.3.9h0c0,.2-.1.4-.1.6a5,5,0,0,0-.4,1.3h-.1a1.4,1.4,0,0,1-.2.6.4.4,0,0,1-.1.3.3.3,0,0,1-.1.2h0c-.1.2-.2.3-.2.5l-.3.7h-.1c0,.1-.1.3-.1.4h-.1c0,.1-.1.2-.1.3a34.8,34.8,0,0,1-11.8,14l-1.3.9-.6.4-2.8,1.5h0l-.8.4-1.2.5-.5.2H44.5l-.4-.2-1-.4-.6-.3-2.2-1.1-1.1-.6-.4-.3h-.2l-1.8-1.3A35,35,0,0,1,23.9,45.3a.4.4,0,0,0-.1-.3c-.1-.6-.3-1.2-.4-1.8a.4.4,0,0,1-.1-.3,34.2,34.2,0,0,1-.9-7.9A35,35,0,0,1,85.5,14.2a.1.1,0,0,0,.1.1,4.1,4.1,0,0,1,.5.9l.7.9h0l.5.7a.8.8,0,0,0,.2.4h0a5.6,5.6,0,0,1,.5.8,12.4,12.4,0,0,1,1,2v.2a5.9,5.9,0,0,1,.4.8c.1.2.1.4.2.6h.1l.3.8a.8.8,0,0,0,.2.5v.2l.3.8a6.4,6.4,0,0,1,.2.7h0l.3.8a4.3,4.3,0,0,0,.1.5,6.4,6.4,0,0,0,.2.7c.1.7.3,1.3.4,2h0c0,.2.1.5.1.8a14.9,14.9,0,0,1,.2,2.1h.1v1.4h0a2.2,2.2,0,0,1,.1.8Z"/><path class="cls-2" d="M86.1,15.2l-28.7-.5,28.1-.5a.1.1,0,0,0,.1.1A4.1,4.1,0,0,1,86.1,15.2Z"/><path class="cls-3" d="M87.3,16.9l-24-.4,23.5-.4h0Z"/><path class="cls-4" d="M88,18.2l-26.8-.5,26.3-.4h0A5.6,5.6,0,0,1,88,18.2Z"/><path class="cls-5" d="M89.5,21.2l-30.4-.5L89,20.2v.2A5.9,5.9,0,0,1,89.5,21.2Z"/><path class="cls-6" d="M90.1,22.7l-27.4-.5,27-.4h.1Z"/><path class="cls-7" d="M90.6,24.2l-28.3-.5,28-.5v.2Z"/><path class="cls-8" d="M91.1,25.8,60,25.3l30.8-.4h0Z"/><path class="cls-9" d="M91.4,27l-20.8-.3,20.6-.4A6.4,6.4,0,0,0,91.4,27Z"/><path class="cls-10" d="M91.9,29.8l-24-.4L91.8,29h0C91.8,29.2,91.9,29.5,91.9,29.8Z"/><path class="cls-11" d="M92.2,32.7l-24-.4,23.9-.4h.1Z"/><path class="cls-12" d="M92.3,34.2l-28-.4,27.9-.5h0A2.2,2.2,0,0,1,92.3,34.2Z"/><path class="cls-13" d="M92.3,34.8v1l-28-.5h0Z"/><path class="cls-14" d="M92.1,38.1h0v.7l-21.2-.4Z"/><path class="cls-15" d="M92,39.6h0a2,2,0,0,0-.1.7L70.5,40h0Z"/><path class="cls-16" d="M91.7,41.1h0c0,.2-.1.4-.1.7l-19.9-.3h-.1Z"/><path class="cls-17" d="M91.4,42.7h0c0,.2-.1.5-.1.7H84l-11.2-.2h-.1Z"/><path class="cls-18" d="M91,44.3c0,.2-.1.4-.1.6H91Z"/><path class="cls-19" d="M90.4,46.2a1.4,1.4,0,0,1-.2.6h.2Z"/><polygon class="cls-20" points="91 48 89.8 48 87 48 83.2 47.9 82.8 47.9 82.4 47.9 76.6 47.8 76.1 47.8 74 47.8 73.2 47.7 73.9 47.7 76.1 47.7 76.7 47.7 82.7 47.6 82.8 47.6 84.4 47.5 86.5 47.5 90 47.5 90.3 47.5 91 48"/><polygon class="cls-21" points="94.3 48.7 94.7 49.3 89.3 49.2 88.7 49.2 82.8 49.1 81.6 49.1 81.2 49.1 78.5 49 77.3 49 76.1 49 77.3 49 78.1 49 81.4 48.9 81.6 48.9 84.1 48.9 88.1 48.8 89.4 48.8 93.5 48.7 94.3 48.7"/><polygon class="cls-22" points="100.9 49.4 99.2 49.4 100.1 48.7 100.9 49.4"/><polygon class="cls-23" points="117.2 67.9 0.5 67.9 7.7 53 10.6 55.7 13 52.6 19.1 43.4 22 45.6 23.4 43.2 24.1 42 26.5 43.6 37.4 35.7 43.2 43.4 56.7 26.3 64.3 35.3 64.3 35.3 67.3 38.8 69.7 38.8 70.5 39.9 70.5 40 71.6 41.5 71.7 41.5 72.7 43 72.8 43.1 75.2 46.5 75.2 46.5 76.1 47.7 76.1 47.8 76.4 48.2 76.6 47.8 76.7 47.7 77.1 46.5 77.2 46.4 77.4 45.8 80 46.4 80.8 46.5 81 46.4 82.6 44.7 82.8 44.5 84.4 42.9 84.9 43.3 86.3 44.4 86.8 44.8 88.7 46.2 89.4 46.8 90 47.3 90.3 47.5 91 48 91.9 48.7 94.3 48.7 94.7 49.3 96.5 51.6 99.2 49.4 100.1 48.7 100.9 49.4 105.6 53.3 108.5 54.5 117.2 67.9"/><polygon class="cls-24" points="117.2 67.9 0.5 67.9 2.3 64.9 7.7 56 10.6 58.7 13 55.6 19.1 46.4 22 48.6 23.9 45.3 24.1 45 26.5 46.6 37.4 38.7 43.2 46.4 56.7 29.3 67.3 41.8 69.7 41.8 70.6 43.1 73.9 47.7 76.4 51.2 77.3 49 77.4 48.8 78.3 49 80.8 49.5 81.3 49 82.6 47.7 83.8 46.5 84.4 45.9 85.1 46.5 86.8 47.7 88.4 49 89.3 49.7 91.9 51.7 94.3 51.7 96.5 54.6 100.1 51.7 105.6 56.3 108.5 57.5 114.7 64.9 117.2 67.9"/><polygon class="cls-25" points="117.2 67.9 0.5 67.9 7.7 53 10.6 55.7 13 52.6 19.1 43.4 22 45.6 23.4 43.2 24.1 42 26.5 43.6 37.4 35.7 43.2 43.4 56.7 26.3 64.3 35.3 64.3 35.3 67.3 38.8 69.7 38.8 70.5 39.9 70.5 40 71.6 41.5 71.7 41.5 72.7 43 72.8 43.1 75.2 46.5 75.2 46.5 76.1 47.7 76.1 47.8 76.4 48.2 76.6 47.8 76.7 47.7 77.1 46.5 77.2 46.4 77.4 45.8 80 46.4 80.8 46.5 81 46.4 82.6 44.7 82.8 44.5 84.4 42.9 84.9 43.3 86.3 44.4 86.8 44.8 88.7 46.2 89.4 46.8 90 47.3 90.3 47.5 91 48 91.9 48.7 94.3 48.7 94.7 49.3 96.5 51.6 99.2 49.4 100.1 48.7 100.9 49.4 105.6 53.3 108.5 54.5 117.2 67.9"/><polygon class="cls-26" points="2.6 64 7.4 64.5 2.6 65 2.6 64"/><polygon class="cls-26" points="3.5 62.4 7.1 62.9 3.5 63.4 3.5 62.4"/><polygon class="cls-26" points="4.4 60.6 6.7 61.1 4.4 61.6 4.4 60.6"/><polygon class="cls-26" points="1.6 65.5 7.7 66 1.6 66.5 1.6 65.5"/><polygon class="cls-26" points="5.2 59.2 6.5 59.7 5.2 60.2 5.2 59.2"/><polygon class="cls-26" points="12.3 56.2 17.1 56.7 12.3 57.2 12.3 56.2"/><polygon class="cls-26" points="13.7 54 17 54.5 13.7 55 13.7 54"/><polygon class="cls-26" points="15.4 51.9 17.2 52.4 15.4 52.9 15.4 51.9"/><polygon class="cls-26" points="16.3 50.1 18.7 50.6 16.3 51.1 16.3 50.1"/><polygon class="cls-26" points="22.6 46.9 24.6 47.4 22.6 47.9 22.6 46.9"/><polygon class="cls-26" points="27.8 45.2 32.6 45.7 27.8 46.2 27.8 45.2"/><polygon class="cls-26" points="29.8 43.6 34.6 44.1 29.8 44.6 29.8 43.6"/><polygon class="cls-26" points="32.2 42 35.8 42.5 32.2 43 32.2 42"/><polygon class="cls-26" points="34.4 40.4 36.9 40.9 34.4 41.4 34.4 40.4"/><polygon class="cls-26" points="44.2 44.7 49.1 45.2 44.2 45.7 44.2 44.7"/><polygon class="cls-26" points="45.6 42.6 50.5 43.1 45.6 43.6 45.6 42.6"/><polygon class="cls-26" points="47.3 40.6 52.1 41.1 47.3 41.6 47.3 40.6"/><polygon class="cls-26" points="49.1 38.4 53.5 38.9 49.1 39.4 49.1 38.4"/><polygon class="cls-26" points="50.7 36.2 54.8 36.7 50.7 37.2 50.7 36.2"/><polygon class="cls-26" points="52.3 34 56.1 34.5 52.3 35 52.3 34"/><polygon class="cls-26" points="54.2 31.8 56.8 32.3 54.2 32.8 54.2 31.8"/><polygon class="cls-26" points="77 49.9 78.5 50.4 77 50.9 77 49.9"/><polygon class="cls-26" points="81.6 48.3 84.2 48.8 81.6 49.3 81.6 48.3"/><path class="cls-27" d="M23.1,67.3H21.5c0,.2.1.4.1.6H20.3c.1-.2.1-.4.2-.6H18.7l1.1-1.7h-.6a.1.1,0,0,1-.1-.1h0l.2-.3.8-1.4h-.5c-.1,0-.1,0-.1-.1h0l1.4-2.2c0-.1.1-.1.2,0l1.4,2.1v.2c0,.1,0,.1-.1.1h-.6l.9,1.4v.4a.1.1,0,0,1-.1.1h-.6l1,1.7a.1.1,0,0,1,.1.1Z"/><path class="cls-27" d="M26.6,67.3H25.5c0,.2.1.4.1.6h-1a1.3,1.3,0,0,0,.1-.6H23.5v-.2l.8-1.1h-.5l.6-.9v-.2h-.4c-.1,0,0-.1,0-.1L25,63c.1-.1.1-.1.2,0l.9,1.5h-.4v.2l.6.9H26l.7,1.1v.2Z"/><path class="cls-27" d="M30.5,67.3H29.1a1.3,1.3,0,0,1,.1.6H28.1a1.3,1.3,0,0,0,.1-.6H26.8l.8-1.4h-.5v-.2l.4-.6.5-.7h-.6l1.2-1.9c0-.1.1-.1.2,0l1.1,1.8a.1.1,0,0,0,.1.1l-.2.2h-.4l.4.7.4.6h.1a.1.1,0,0,1-.1.1h-.5l.9,1.4h-.1Z"/><path class="cls-27" d="M35.4,67.3H33.8c0,.2.1.4.1.6H32.6a1.3,1.3,0,0,0,.1-.6H31l1-1.7h-.5a.1.1,0,0,1-.1-.1h0l.2-.3.8-1.4h-.5c-.1,0-.1,0-.1-.1h0l1.4-2.2c0-.1.1-.1.2,0l1.4,2.1v.2c0,.1,0,.1-.1.1h-.6l.9,1.4v.4a.1.1,0,0,1-.1.1h-.6l1,1.7c.1,0,.1.1,0,.1Z"/><path class="cls-27" d="M39.6,67.3H38.2a1.3,1.3,0,0,0,.1.6H37.1a1.3,1.3,0,0,0,.1-.6H35.7a.1.1,0,0,1,.1-.1l.8-1.4h-.4c-.1,0-.1,0-.1-.1s0-.1,0-.1l.4-.6.5-.8h-.6v-.2l1.2-1.9h.2L39,63.8h0c0,.1,0,.2-.1.2h-.5l.5.8.4.5v.2a.1.1,0,0,1-.1.1h-.4l.8,1.4a.1.1,0,0,1,.1.1Z"/><path class="cls-27" d="M42.8,67.1v.2H41.6c.1.2.1.4.2.6h-1a1.3,1.3,0,0,0,.1-.6H39.8v-.2l.7-1H40l.7-1h-.4l.9-1.5h.2l.9,1.5h-.4l.6,1h.1v.2h-.4Z"/><path class="cls-27" d="M47.4,67.3H45.8a1.3,1.3,0,0,0,.1.6H44.6c0-.2.1-.4.1-.6H43l1-1.7h-.6v-.3l.9-1.4h-.7l1.4-2.2c.1-.1.2-.1.2,0l1.4,2.1c.1.1.1.1.1.2h-.7l.8,1.4.2.2v.2a.1.1,0,0,1-.1.1h-.5l1,1.7h-.1Z"/><path class="cls-27" d="M51.2,67.3H49.9c0,.2.1.4.1.6H48.9a1.3,1.3,0,0,0,.1-.6H47.7l.8-1.3H48v-.2l.5-.7.3-.6h-.5v-.2l1.1-1.7c0-.1.1-.1.1,0l1.1,1.7h-.5l.4.6.4.7a.1.1,0,0,1,.1.1h-.6l.8,1.3c.1.1.1.1,0,.1Z"/><path class="cls-27" d="M53.8,67.2l-.6-.9h.4a.1.1,0,0,0-.1-.1l-.5-.9h.3a.1.1,0,0,0,.1-.1h-.1l-.7-1.2c-.1-.1-.1-.1-.1,0l-.8,1.2H52l-.5.9h.3l-.5.9h.9a.8.8,0,0,1-.2.6h1a.8.8,0,0,1-.2-.6h1Z"/><path class="cls-27" d="M55.6,67.2l-.4-.6h.3l-.4-.6h.2l-.5-.8h-.1l-.5.8h.2l-.3.6c-.1,0-.1,0,0,.1h.2l-.4.6h.7l-.2.4h.7c-.1-.1-.1-.2-.1-.4h.6Z"/><polygon class="cls-26" points="82.8 47 84.6 47.5 82.8 48 82.8 47"/><path class="cls-27" d="M59.4,67.2l-.5-.7h.3l-.5-.7H59l-.6-.9h-.1l-.6,1h0c0,.1,0,.1.1.1H58l-.4.7c-.1,0-.1,0,0,.1h.2l-.4.7h.7c0,.2,0,.4-.1.4h.7a.1.1,0,0,1,.1-.1h-.1a1,1,0,0,1-.1-.4h.8Z"/><path class="cls-27" d="M62.9,67.1l-.8-1.3h.5l-.8-1.3h.5l-1.1-1.7c0-.1-.1-.1-.1,0L60,64.1v.2h.5l-.8,1.3v.2h.5l-.8,1.3h1.3a1.3,1.3,0,0,1-.2.8h1.3c.1,0,.1-.1,0-.1a1.3,1.3,0,0,1-.2-.8h1.3C63,67.2,63,67.2,62.9,67.1Z"/><path class="cls-27" d="M66.1,67.1,65.4,66h.5l-.7-1.1h.4l-.9-1.5h-.1l-1,1.5h.5l-.7,1.1c-.1,0-.1.1,0,.1h.4l-.7,1.1h1.2a2.5,2.5,0,0,0-.2.7h1.1a1.4,1.4,0,0,1-.2-.7h1.1Z"/><path class="cls-27" d="M69.9,67.1l-.8-1.3h.5a.1.1,0,0,0-.1-.1l-.7-1.3h.5a.1.1,0,0,0-.1-.1l-1-1.7c-.1-.1-.2-.1-.2,0l-1.1,1.7v.2h.5l-.8,1.3v.2h.5l-.8,1.3h1.4a2.2,2.2,0,0,1-.3.8h1.4c-.2-.1-.2-.4-.3-.8h1.4Z"/><path class="cls-27" d="M72.1,67.2l-.5-.7h.3l-.5-.7h.3l-.6-.9H71l-.6,1h0a.1.1,0,0,0,.1.1h.2l-.4.7h.2l-.4.7h.7c0,.2,0,.4-.1.4h.7a1,1,0,0,1-.1-.4h.8Z"/><path class="cls-27" d="M78.2,67.3H76a1.9,1.9,0,0,0,.2.7H74.4c.1-.2.1-.5.2-.7H72.4c-.1,0-.1-.1-.2-.2v-.2l1.3-2.2h-.7c-.1,0-.1,0-.1-.1s-.1-.2,0-.2L73,64l1.1-1.8h-.7a.1.1,0,0,1-.1-.1.2.2,0,0,1,0-.3l1.9-2.9c0-.1.2-.1.2,0l1.9,2.9V62c0,.1,0,.2-.1.2h-.8L77.6,64l.2.3v.2c0,.1,0,.2-.1.2h-.8l1.4,2.2c0,.1.1.2,0,.2A.3.3,0,0,1,78.2,67.3Z"/><path class="cls-27" d="M81.2,67.1,80.5,66H81l-.7-1.1h.4l-.9-1.5h-.1l-1,1.5h.5l-.7,1.1h.4l-.7,1.1h1.2a6.4,6.4,0,0,1-.2.7h1.1a1.4,1.4,0,0,1-.2-.7h1.1Z"/><path class="cls-27" d="M82.2,67.2l-.4-.7H82l-.4-.7h.2a.1.1,0,0,0,.1-.1h0l-.6-.9h-.1l-.6,1h.2l-.4.7h.3l-.5.7H81c0,.2-.1.4-.2.4h.7a.1.1,0,0,0,.1-.1h0c-.1,0-.1-.2-.2-.4h.8Z"/><path class="cls-27" d="M84.3,67.2l-.4-.7h.3l-.5-.7H84l-.6-.9h-.1l-.6,1H83l-.5.7h.3l-.4.7h.7a1,1,0,0,1-.1.4h.7a1,1,0,0,1-.1-.4h.7Z"/><path class="cls-27" d="M87.9,67.1l-.8-1.3h.5l-.8-1.3h.5l-1.1-1.7c0-.1-.1-.1-.1,0L85,64.1v.2h.6l-.8,1.3v.2h.6l-.8,1.3c-.1.1-.1.1,0,.1h1.3a1.3,1.3,0,0,1-.2.8.1.1,0,0,0-.1.1h1.4a1.3,1.3,0,0,1-.2-.8h1.3Z"/><path class="cls-27" d="M92.5,67.3H90.9a1.3,1.3,0,0,0,.1.6H89.7c0-.2.1-.4.1-.6H88.1V67l1-1.6h-.5a.1.1,0,0,1-.1-.1c-.1-.1-.1-.1,0-.2v-.2l.9-1.4h-.6a.1.1,0,0,0-.1-.1v-.2L90.2,61c.1-.1.2-.1.2,0l1.4,2.2h.1a.2.2,0,0,1-.2.2h-.5l.9,1.4v.2h0c0,.1,0,.2-.1.2h-.5l1,1.6v.2Z"/><path class="cls-27" d="M97.6,67.2H95.8a6.4,6.4,0,0,0,.2.7H94.5a6.4,6.4,0,0,0,.2-.7H92.9a.1.1,0,0,1-.1-.1v-.2l1.1-1.7h-.7v-.2l.2-.3.9-1.5h-.6a.1.1,0,0,1-.1-.1h0l1.5-2.4a.2.2,0,0,1,.3,0l1.4,2.3c.1.1.1.1.1.2a.1.1,0,0,1-.1.1h-.6l.9,1.5v.3h.1v.2h-.6l1.1,1.7v.2A.1.1,0,0,1,97.6,67.2Z"/><polygon class="cls-26" points="96.4 53.9 99.8 54.4 96.4 54.9 96.4 53.9"/><polygon class="cls-26" points="98.5 52.6 100.1 53.1 98.5 53.6 98.5 52.6"/><path class="cls-28" d="M57.3,67.2l-.4-.6h.3l-.4-.6H57a.1.1,0,0,0,.1-.1H57l-.5-.8h-.1l-.5.8h0c0,.1,0,.1.1.1h.2l-.4.6H56l-.4.6h.7c0,.2-.1.3-.1.4h.6c-.1-.1-.1-.2-.1-.4h.6Z"/><path d="M57.5,45.2H55.9a1.2,1.2,0,0,0-1.1,1.2v.7a1.2,1.2,0,0,0,1,1.2h1.8a1.3,1.3,0,0,0,1.1-1.2v-.7A1.2,1.2,0,0,0,57.5,45.2Zm.5,1.9a.5.5,0,0,1-.5.5H55.9a.5.5,0,0,1-.4-.5v-.7a.4.4,0,0,1,.4-.4h1.6a.5.5,0,0,1,.5.4Z"/><path d="M64.7,49h-16a1.1,1.1,0,0,1,0-2.2h16a1.1,1.1,0,0,1,0,2.2Z"/><path d="M56.7,53.2a.9.9,0,0,1-.9-.9V48.5a.9.9,0,0,1,1.8,0v3.8A.9.9,0,0,1,56.7,53.2Z"/><rect x="55.5" y="51.8" width="2.5" height="15.72" rx="1.3"/><path d="M57.6,51.7a1.2,1.2,0,0,0-.9-.3,1.6,1.6,0,0,0-.9.3,1.7,1.7,0,0,0-.7,1.3V66.2a2.1,2.1,0,0,0,.4,1.1l.3.2.3.2h.6a1.7,1.7,0,0,0,1-.3l.2-.2a1.5,1.5,0,0,0,.4-1.1V53A1.5,1.5,0,0,0,57.6,51.7Zm0,14.6v.2a1,1,0,0,1-.4.5h-.5a.8.8,0,0,1-.7-.4h-.1V53c0-.1.1-.2.1-.3h0a.8.8,0,0,1,.8-.6.8.8,0,0,1,.8.6h0a.4.4,0,0,1,.1.3V66.2Z"/><path d="M61.2,61.6H58a.4.4,0,0,1-.4-.4c0-.2.2-.3.4-.3h3.2c.2,0,.4.1.4.3A.4.4,0,0,1,61.2,61.6Z"/><path d="M55.5,58.9H52.2c-.2,0-.3-.2-.3-.4a.3.3,0,0,1,.3-.3h3.3a.3.3,0,0,1,.3.3C55.8,58.7,55.7,58.9,55.5,58.9Z"/><path d="M63.3,49.9a.5.5,0,0,1-.5-.5v-3a.5.5,0,0,1,.5-.4.4.4,0,0,1,.4.4v3A.5.5,0,0,1,63.3,49.9Z"/><path d="M50.4,49.9a.5.5,0,0,1-.5-.5v-3a.5.5,0,0,1,.5-.4.4.4,0,0,1,.4.4v3A.5.5,0,0,1,50.4,49.9Z"/><rect x="60.3" y="59.9" width="2.5" height="2.55"/><rect x="50.4" y="57.1" width="2.5" height="2.55"/><polygon class="cls-29" points="117.2 67.9 0.5 67.9 2.3 64.9 7.7 56 10.6 58.7 13 55.6 19.1 46.4 22 48.6 23.9 45.3 24.1 45 26.5 46.6 37.4 38.7 43.2 46.4 56.7 29.3 67.3 41.8 69.7 41.8 70.6 43.1 73.9 47.7 76.4 51.2 77.3 49 77.4 48.8 78.3 49 80.8 49.5 81.3 49 82.6 47.7 83.8 46.5 84.4 45.9 85.1 46.5 86.8 47.7 88.4 49 89.3 49.7 91.9 51.7 94.3 51.7 96.5 54.6 100.1 51.7 105.6 56.3 108.5 57.5 114.7 64.9 117.2 67.9"/></g></g></svg>